<svg viewBox="0 0 1024 1064.882" xmlns="http://www.w3.org/2000/svg"><path fill="#fff" d="M509.774 43.594c200.158.025 362.41 162.29 362.41 362.45 0 .377-.002.752-.003 1.128v-.058c.002.318.003.693.003 1.07 0 97.414-38.884 185.747-101.98 250.324l.068-.07c-42.204 44.197-68.178 104.208-68.178 170.285 0 1.006.006 2.01.018 3.013v-.152 22.26H317.396v-22.26l.002-1.046c0-67.355-26.347-128.556-69.297-173.86l.107.113C185.83 591.8 147.417 503.385 147.417 406c0-134.875 73.678-252.54 182.98-314.945l1.78-.936c51.12-29.22 112.337-46.47 177.58-46.526h.018zM658.21 809.368c4.864-70.833 34.397-133.964 79.974-181.624l-.103.11c55.397-56.568 89.58-134.094 89.58-219.605 0-.43 0-.86-.002-1.29v.065l.002-.998c0-175.563-142.322-317.885-317.885-317.885S191.89 230.464 191.89 406.027c0 85.54 33.786 163.186 88.74 220.326l-.1-.103c45.682 48.146 75.442 111.796 80.617 182.277l.057.974zm-126.175-518.5v223.01H383.11zm-44.522 178.487V437.7l-21.148 31.655zm0 181.382V427.06H636.35zm44.522-179.156v31.88l21.237-31.88zM317.44 809.5h384.668V916.8c-.076 59.228-48.07 107.22-107.29 107.297h-170.08c-59.228-.076-107.22-48.07-107.297-107.29v-.007zm340.146 44.523H361.962V916.8c.05 34.65 28.126 62.724 62.77 62.775h170.08c34.65-.05 62.724-28.126 62.775-62.77v-.006zM84.59 429.286H0v-44.522h84.59zM212.37 89.14H127.33V44.618h85.037zm0 679.847H127.33v-44.522h85.037zm807.178-339.7h-84.59v-44.523h84.59zm-127.332 339.7H807.18v-44.522h85.036zm0-679.847H807.18V44.618h85.036z"/></svg>